<svg xmlns="http://www.w3.org/2000/svg" viewBox="0 0 200 200" width="100%" height="100%">
  
  <path d="M 100 185 C 20 155 20 80 20 40 L 100 15" fill="none" stroke="#ffffff" stroke-width="10" stroke-linecap="round" stroke-linejoin="round"/>
  <path d="M 100 160 C 40 135 40 85 40 50 L 100 30" fill="none" stroke="#35C553" stroke-width="6" stroke-linecap="round" stroke-linejoin="round"/>
  <path d="M 100 185 C 180 155 180 80 180 40 L 100 15" fill="none" stroke="#35C553" stroke-width="10" stroke-linecap="round" stroke-linejoin="round"/>

  <rect x="60" y="55" width="60" height="90" rx="6" fill="#121212" stroke="#35C553" stroke-width="4" transform="rotate(-40 90 100)"/>
  <rect x="65" y="50" width="60" height="90" rx="6" fill="#121212" stroke="#ffffff" stroke-width="4" transform="rotate(-25 95 95)"/>
  <rect x="70" y="45" width="60" height="90" rx="6" fill="#121212" stroke="#35C553" stroke-width="4" transform="rotate(-10 100 90)"/>

  <g transform="rotate(12 110 95)">
    <rect x="75" y="30" width="75" height="110" rx="6" fill="#121212" stroke="#ffffff" stroke-width="6"/>

    <text x="112" y="65" fill="#35C553" font-family="'Segoe UI', Roboto, Helvetica, Arial, sans-serif" font-weight="900" font-size="18" text-anchor="middle" letter-spacing="1">LIVE</text>

    <path d="M 97 75 L 97 105 L 125 90 Z" fill="#35C553" stroke="#35C553" stroke-width="2" stroke-linejoin="round"/>

    <circle cx="150" cy="30" r="4" fill="#35C553"/>
    <path d="M 158 22 A 12 12 0 0 1 158 38" fill="none" stroke="#35C553" stroke-width="3" stroke-linecap="round"/>
    <path d="M 166 14 A 22 22 0 0 1 166 46" fill="none" stroke="#35C553" stroke-width="3" stroke-linecap="round"/>
  </g>

  <path d="M 20 130 C 20 180 75 170 105 135" fill="none" stroke="#ffffff" stroke-width="10" stroke-linecap="round"/>
  <polygon points="95,115 130,120 110,150" fill="#ffffff" stroke="#ffffff" stroke-width="2" stroke-linejoin="round"/>

</svg>
